# Tiled2Unity generated file. Do not modify by hand.
# Wavefront file for 'Level-3-Sheet-1_mesh_0002.obj'

# Vertices (Count = 60)
v -8 -69 0
v -9 -69 0
v -9 -68 0
v -8 -68 0
v -8 -83 0
v -9 -83 0
v -9 -82 0
v -8 -82 0
v -21 -83 0
v -22 -83 0
v -22 -82 0
v -21 -82 0
v -22 -83 0
v -23 -83 0
v -23 -82 0
v -22 -82 0
v -23 -83 0
v -24 -83 0
v -24 -82 0
v -23 -82 0
v -24 -83 0
v -25 -83 0
v -25 -82 0
v -24 -82 0
v -25 -83 0
v -26 -83 0
v -26 -82 0
v -25 -82 0
v -26 -83 0
v -27 -83 0
v -27 -82 0
v -26 -82 0
v -27 -83 0
v -28 -83 0
v -28 -82 0
v -27 -82 0
v -28 -83 0
v -29 -83 0
v -29 -82 0
v -28 -82 0
v -29 -83 0
v -30 -83 0
v -30 -82 0
v -29 -82 0
v -30 -83 0
v -31 -83 0
v -31 -82 0
v -30 -82 0
v -8 -84 0
v -9 -84 0
v -9 -83 0
v -8 -83 0
v -8 -85 0
v -9 -85 0
v -9 -84 0
v -8 -84 0
v -8 -86 0
v -9 -86 0
v -9 -85 0
v -8 -85 0

# Texture cooridinates (Count = 8)
vt 0.5882353 0.625
vt 0.6470588 0.625
vt 0.6470588 0.75
vt 0.5882353 0.75
vt 0.7058824 0.625
vt 0.7058824 0.75
vt 0.7058824 0.875
vt 0.6470588 0.875

# Normal
vn 0 0 -1

# Mesh description
g Level-3-Sheet-1_mesh_0002

# Faces
f 1/1/1 2/2/1 3/3/1 4/4/1
f 5/2/1 6/5/1 7/6/1 8/3/1
f 9/3/1 10/6/1 11/7/1 12/8/1
f 13/3/1 14/6/1 15/7/1 16/8/1
f 17/3/1 18/6/1 19/7/1 20/8/1
f 21/3/1 22/6/1 23/7/1 24/8/1
f 25/3/1 26/6/1 27/7/1 28/8/1
f 29/3/1 30/6/1 31/7/1 32/8/1
f 33/3/1 34/6/1 35/7/1 36/8/1
f 37/3/1 38/6/1 39/7/1 40/8/1
f 41/3/1 42/6/1 43/7/1 44/8/1
f 45/3/1 46/6/1 47/7/1 48/8/1
f 49/2/1 50/5/1 51/6/1 52/3/1
f 53/2/1 54/5/1 55/6/1 56/3/1
f 57/2/1 58/5/1 59/6/1 60/3/1

