# Tiled2Unity generated file. Do not modify by hand.
# Wavefront file for 'Level-3-Sheet-1_mesh_0002.obj'

# Vertices (Count = 56)
v -8 -83 0
v -9 -83 0
v -9 -82 0
v -8 -82 0
v -21 -83 0
v -22 -83 0
v -22 -82 0
v -21 -82 0
v -22 -83 0
v -23 -83 0
v -23 -82 0
v -22 -82 0
v -23 -83 0
v -24 -83 0
v -24 -82 0
v -23 -82 0
v -24 -83 0
v -25 -83 0
v -25 -82 0
v -24 -82 0
v -25 -83 0
v -26 -83 0
v -26 -82 0
v -25 -82 0
v -26 -83 0
v -27 -83 0
v -27 -82 0
v -26 -82 0
v -27 -83 0
v -28 -83 0
v -28 -82 0
v -27 -82 0
v -28 -83 0
v -29 -83 0
v -29 -82 0
v -28 -82 0
v -29 -83 0
v -30 -83 0
v -30 -82 0
v -29 -82 0
v -30 -83 0
v -31 -83 0
v -31 -82 0
v -30 -82 0
v -8 -84 0
v -9 -84 0
v -9 -83 0
v -8 -83 0
v -8 -85 0
v -9 -85 0
v -9 -84 0
v -8 -84 0
v -8 -86 0
v -9 -86 0
v -9 -85 0
v -8 -85 0

# Texture cooridinates (Count = 6)
vt 0.6470588 0.625
vt 0.7058824 0.625
vt 0.7058824 0.75
vt 0.6470588 0.75
vt 0.7058824 0.875
vt 0.6470588 0.875

# Normal
vn 0 0 -1

# Mesh description
g Level-3-Sheet-1_mesh_0002

# Faces
f 1/1/1 2/2/1 3/3/1 4/4/1
f 5/4/1 6/3/1 7/5/1 8/6/1
f 9/4/1 10/3/1 11/5/1 12/6/1
f 13/4/1 14/3/1 15/5/1 16/6/1
f 17/4/1 18/3/1 19/5/1 20/6/1
f 21/4/1 22/3/1 23/5/1 24/6/1
f 25/4/1 26/3/1 27/5/1 28/6/1
f 29/4/1 30/3/1 31/5/1 32/6/1
f 33/4/1 34/3/1 35/5/1 36/6/1
f 37/4/1 38/3/1 39/5/1 40/6/1
f 41/4/1 42/3/1 43/5/1 44/6/1
f 45/1/1 46/2/1 47/3/1 48/4/1
f 49/1/1 50/2/1 51/3/1 52/4/1
f 53/1/1 54/2/1 55/3/1 56/4/1

