# Tiled2Unity generated file. Do not modify by hand.
# Wavefront file for 'Level-1-Sheet-1_mesh_0002.obj'

# Vertices (Count = 1116)
v -76 -34 0
v -77 -34 0
v -77 -33 0
v -76 -33 0
v -77 -34 0
v -78 -34 0
v -78 -33 0
v -77 -33 0
v -78 -34 0
v -79 -34 0
v -79 -33 0
v -78 -33 0
v -79 -34 0
v -80 -34 0
v -80 -33 0
v -79 -33 0
v -80 -34 0
v -81 -34 0
v -81 -33 0
v -80 -33 0
v -81 -34 0
v -82 -34 0
v -82 -33 0
v -81 -33 0
v -82 -34 0
v -83 -34 0
v -83 -33 0
v -82 -33 0
v -83 -34 0
v -84 -34 0
v -84 -33 0
v -83 -33 0
v -84 -34 0
v -85 -34 0
v -85 -33 0
v -84 -33 0
v -85 -34 0
v -86 -34 0
v -86 -33 0
v -85 -33 0
v -86 -34 0
v -87 -34 0
v -87 -33 0
v -86 -33 0
v -87 -34 0
v -88 -34 0
v -88 -33 0
v -87 -33 0
v -81 -35 0
v -82 -35 0
v -82 -34 0
v -81 -34 0
v -87 -35 0
v -88 -35 0
v -88 -34 0
v -87 -34 0
v -79 -36 0
v -80 -36 0
v -80 -35 0
v -79 -35 0
v -81 -36 0
v -82 -36 0
v -82 -35 0
v -81 -35 0
v -83 -36 0
v -84 -36 0
v -84 -35 0
v -83 -35 0
v -87 -36 0
v -88 -36 0
v -88 -35 0
v -87 -35 0
v -51 -37 0
v -52 -37 0
v -52 -36 0
v -51 -36 0
v -52 -37 0
v -53 -37 0
v -53 -36 0
v -52 -36 0
v -53 -37 0
v -54 -37 0
v -54 -36 0
v -53 -36 0
v -54 -37 0
v -55 -37 0
v -55 -36 0
v -54 -36 0
v -55 -37 0
v -56 -37 0
v -56 -36 0
v -55 -36 0
v -56 -37 0
v -57 -37 0
v -57 -36 0
v -56 -36 0
v -80 -37 0
v -81 -37 0
v -81 -36 0
v -80 -36 0
v -81 -37 0
v -82 -37 0
v -82 -36 0
v -81 -36 0
v -82 -37 0
v -83 -37 0
v -83 -36 0
v -82 -36 0
v -87 -37 0
v -88 -37 0
v -88 -36 0
v -87 -36 0
v -51 -38 0
v -52 -38 0
v -52 -37 0
v -51 -37 0
v -81 -38 0
v -82 -38 0
v -82 -37 0
v -81 -37 0
v -87 -38 0
v -88 -38 0
v -88 -37 0
v -87 -37 0
v -51 -39 0
v -52 -39 0
v -52 -38 0
v -51 -38 0
v -87 -39 0
v -88 -39 0
v -88 -38 0
v -87 -38 0
v -51 -40 0
v -52 -40 0
v -52 -39 0
v -51 -39 0
v -72 -40 0
v -73 -40 0
v -73 -39 0
v -72 -39 0
v -87 -40 0
v -88 -40 0
v -88 -39 0
v -87 -39 0
v -51 -41 0
v -52 -41 0
v -52 -40 0
v -51 -40 0
v -69 -41 0
v -70 -41 0
v -70 -40 0
v -69 -40 0
v -81 -41 0
v -82 -41 0
v -82 -40 0
v -81 -40 0
v -87 -41 0
v -88 -41 0
v -88 -40 0
v -87 -40 0
v -51 -42 0
v -52 -42 0
v -52 -41 0
v -51 -41 0
v -66 -42 0
v -67 -42 0
v -67 -41 0
v -66 -41 0
v -80 -42 0
v -81 -42 0
v -81 -41 0
v -80 -41 0
v -81 -42 0
v -82 -42 0
v -82 -41 0
v -81 -41 0
v -82 -42 0
v -83 -42 0
v -83 -41 0
v -82 -41 0
v -83 -42 0
v -84 -42 0
v -84 -41 0
v -83 -41 0
v -84 -42 0
v -85 -42 0
v -85 -41 0
v -84 -41 0
v -85 -42 0
v -86 -42 0
v -86 -41 0
v -85 -41 0
v -86 -42 0
v -87 -42 0
v -87 -41 0
v -86 -41 0
v -87 -42 0
v -88 -42 0
v -88 -41 0
v -87 -41 0
v -12 -43 0
v -13 -43 0
v -13 -42 0
v -12 -42 0
v -13 -43 0
v -14 -43 0
v -14 -42 0
v -13 -42 0
v -14 -43 0
v -15 -43 0
v -15 -42 0
v -14 -42 0
v -15 -43 0
v -16 -43 0
v -16 -42 0
v -15 -42 0
v -16 -43 0
v -17 -43 0
v -17 -42 0
v -16 -42 0
v -17 -43 0
v -18 -43 0
v -18 -42 0
v -17 -42 0
v -18 -43 0
v -19 -43 0
v -19 -42 0
v -18 -42 0
v -19 -43 0
v -20 -43 0
v -20 -42 0
v -19 -42 0
v -20 -43 0
v -21 -43 0
v -21 -42 0
v -20 -42 0
v -51 -43 0
v -52 -43 0
v -52 -42 0
v -51 -42 0
v -55 -43 0
v -56 -43 0
v -56 -42 0
v -55 -42 0
v -56 -43 0
v -57 -43 0
v -57 -42 0
v -56 -42 0
v -57 -43 0
v -58 -43 0
v -58 -42 0
v -57 -42 0
v -58 -43 0
v -59 -43 0
v -59 -42 0
v -58 -42 0
v -59 -43 0
v -60 -43 0
v -60 -42 0
v -59 -42 0
v -60 -43 0
v -61 -43 0
v -61 -42 0
v -60 -42 0
v -61 -43 0
v -62 -43 0
v -62 -42 0
v -61 -42 0
v -62 -43 0
v -63 -43 0
v -63 -42 0
v -62 -42 0
v -76 -43 0
v -77 -43 0
v -77 -42 0
v -76 -42 0
v -77 -43 0
v -78 -43 0
v -78 -42 0
v -77 -42 0
v -78 -43 0
v -79 -43 0
v -79 -42 0
v -78 -42 0
v -79 -43 0
v -80 -43 0
v -80 -42 0
v -79 -42 0
v -80 -43 0
v -81 -43 0
v -81 -42 0
v -80 -42 0
v -81 -43 0
v -82 -43 0
v -82 -42 0
v -81 -42 0
v -12 -44 0
v -13 -44 0
v -13 -43 0
v -12 -43 0
v -51 -44 0
v -52 -44 0
v -52 -43 0
v -51 -43 0
v -12 -45 0
v -13 -45 0
v -13 -44 0
v -12 -44 0
v -51 -45 0
v -52 -45 0
v -52 -44 0
v -51 -44 0
v -12 -46 0
v -13 -46 0
v -13 -45 0
v -12 -45 0
v -51 -46 0
v -52 -46 0
v -52 -45 0
v -51 -45 0
v -12 -47 0
v -13 -47 0
v -13 -46 0
v -12 -46 0
v -51 -47 0
v -52 -47 0
v -52 -46 0
v -51 -46 0
v -54 -47 0
v -55 -47 0
v -55 -46 0
v -54 -46 0
v -12 -48 0
v -13 -48 0
v -13 -47 0
v -12 -47 0
v -54 -48 0
v -55 -48 0
v -55 -47 0
v -54 -47 0
v -12 -49 0
v -13 -49 0
v -13 -48 0
v -12 -48 0
v -54 -49 0
v -55 -49 0
v -55 -48 0
v -54 -48 0
v -12 -50 0
v -13 -50 0
v -13 -49 0
v -12 -49 0
v -54 -50 0
v -55 -50 0
v -55 -49 0
v -54 -49 0
v -12 -51 0
v -13 -51 0
v -13 -50 0
v -12 -50 0
v -26 -51 0
v -27 -51 0
v -27 -50 0
v -26 -50 0
v -27 -51 0
v -28 -51 0
v -28 -50 0
v -27 -50 0
v -33 -51 0
v -34 -51 0
v -34 -50 0
v -33 -50 0
v -34 -51 0
v -35 -51 0
v -35 -50 0
v -34 -50 0
v -54 -51 0
v -55 -51 0
v -55 -50 0
v -54 -50 0
v -12 -52 0
v -13 -52 0
v -13 -51 0
v -12 -51 0
v -26 -52 0
v -27 -52 0
v -27 -51 0
v -26 -51 0
v -34 -52 0
v -35 -52 0
v -35 -51 0
v -34 -51 0
v -41 -52 0
v -42 -52 0
v -42 -51 0
v -41 -51 0
v -42 -52 0
v -43 -52 0
v -43 -51 0
v -42 -51 0
v -50 -52 0
v -51 -52 0
v -51 -51 0
v -50 -51 0
v -51 -52 0
v -52 -52 0
v -52 -51 0
v -51 -51 0
v -52 -52 0
v -53 -52 0
v -53 -51 0
v -52 -51 0
v -53 -52 0
v -54 -52 0
v -54 -51 0
v -53 -51 0
v -54 -52 0
v -55 -52 0
v -55 -51 0
v -54 -51 0
v -12 -53 0
v -13 -53 0
v -13 -52 0
v -12 -52 0
v -23 -53 0
v -24 -53 0
v -24 -52 0
v -23 -52 0
v -24 -53 0
v -25 -53 0
v -25 -52 0
v -24 -52 0
v -25 -53 0
v -26 -53 0
v -26 -52 0
v -25 -52 0
v -26 -53 0
v -27 -53 0
v -27 -52 0
v -26 -52 0
v -34 -53 0
v -35 -53 0
v -35 -52 0
v -34 -52 0
v -35 -53 0
v -36 -53 0
v -36 -52 0
v -35 -52 0
v -36 -53 0
v -37 -53 0
v -37 -52 0
v -36 -52 0
v -37 -53 0
v -38 -53 0
v -38 -52 0
v -37 -52 0
v -42 -53 0
v -43 -53 0
v -43 -52 0
v -42 -52 0
v -48 -53 0
v -49 -53 0
v -49 -52 0
v -48 -52 0
v -49 -53 0
v -50 -53 0
v -50 -52 0
v -49 -52 0
v -12 -54 0
v -13 -54 0
v -13 -53 0
v -12 -53 0
v -13 -54 0
v -14 -54 0
v -14 -53 0
v -13 -53 0
v -14 -54 0
v -15 -54 0
v -15 -53 0
v -14 -53 0
v -15 -54 0
v -16 -54 0
v -16 -53 0
v -15 -53 0
v -16 -54 0
v -17 -54 0
v -17 -53 0
v -16 -53 0
v -17 -54 0
v -18 -54 0
v -18 -53 0
v -17 -53 0
v -18 -54 0
v -19 -54 0
v -19 -53 0
v -18 -53 0
v -19 -54 0
v -20 -54 0
v -20 -53 0
v -19 -53 0
v -20 -54 0
v -21 -54 0
v -21 -53 0
v -20 -53 0
v -42 -54 0
v -43 -54 0
v -43 -53 0
v -42 -53 0
v -47 -54 0
v -48 -54 0
v -48 -53 0
v -47 -53 0
v -42 -55 0
v -43 -55 0
v -43 -54 0
v -42 -54 0
v -43 -55 0
v -44 -55 0
v -44 -54 0
v -43 -54 0
v -44 -55 0
v -45 -55 0
v -45 -54 0
v -44 -54 0
v -45 -55 0
v -46 -55 0
v -46 -54 0
v -45 -54 0
v -46 -55 0
v -47 -55 0
v -47 -54 0
v -46 -54 0
v -18 -57 0
v -19 -57 0
v -19 -56 0
v -18 -56 0
v -19 -57 0
v -20 -57 0
v -20 -56 0
v -19 -56 0
v -20 -57 0
v -21 -57 0
v -21 -56 0
v -20 -56 0
v -21 -57 0
v -22 -57 0
v -22 -56 0
v -21 -56 0
v -22 -57 0
v -23 -57 0
v -23 -56 0
v -22 -56 0
v -23 -57 0
v -24 -57 0
v -24 -56 0
v -23 -56 0
v -24 -57 0
v -25 -57 0
v -25 -56 0
v -24 -56 0
v -25 -57 0
v -26 -57 0
v -26 -56 0
v -25 -56 0
v -26 -57 0
v -27 -57 0
v -27 -56 0
v -26 -56 0
v -27 -57 0
v -28 -57 0
v -28 -56 0
v -27 -56 0
v -28 -57 0
v -29 -57 0
v -29 -56 0
v -28 -56 0
v -29 -57 0
v -30 -57 0
v -30 -56 0
v -29 -56 0
v -30 -57 0
v -31 -57 0
v -31 -56 0
v -30 -56 0
v -31 -57 0
v -32 -57 0
v -32 -56 0
v -31 -56 0
v -32 -57 0
v -33 -57 0
v -33 -56 0
v -32 -56 0
v -33 -57 0
v -34 -57 0
v -34 -56 0
v -33 -56 0
v -34 -57 0
v -35 -57 0
v -35 -56 0
v -34 -56 0
v -35 -57 0
v -36 -57 0
v -36 -56 0
v -35 -56 0
v -36 -57 0
v -37 -57 0
v -37 -56 0
v -36 -56 0
v -37 -57 0
v -38 -57 0
v -38 -56 0
v -37 -56 0
v -38 -57 0
v -39 -57 0
v -39 -56 0
v -38 -56 0
v -39 -57 0
v -40 -57 0
v -40 -56 0
v -39 -56 0
v -40 -57 0
v -41 -57 0
v -41 -56 0
v -40 -56 0
v -41 -57 0
v -42 -57 0
v -42 -56 0
v -41 -56 0
v -42 -57 0
v -43 -57 0
v -43 -56 0
v -42 -56 0
v -43 -57 0
v -44 -57 0
v -44 -56 0
v -43 -56 0
v -44 -57 0
v -45 -57 0
v -45 -56 0
v -44 -56 0
v -45 -57 0
v -46 -57 0
v -46 -56 0
v -45 -56 0
v -46 -57 0
v -47 -57 0
v -47 -56 0
v -46 -56 0
v -47 -57 0
v -48 -57 0
v -48 -56 0
v -47 -56 0
v -48 -57 0
v -49 -57 0
v -49 -56 0
v -48 -56 0
v -49 -57 0
v -50 -57 0
v -50 -56 0
v -49 -56 0
v -50 -57 0
v -51 -57 0
v -51 -56 0
v -50 -56 0
v -51 -57 0
v -52 -57 0
v -52 -56 0
v -51 -56 0
v -52 -57 0
v -53 -57 0
v -53 -56 0
v -52 -56 0
v -53 -57 0
v -54 -57 0
v -54 -56 0
v -53 -56 0
v -54 -57 0
v -55 -57 0
v -55 -56 0
v -54 -56 0
v -55 -57 0
v -56 -57 0
v -56 -56 0
v -55 -56 0
v -56 -57 0
v -57 -57 0
v -57 -56 0
v -56 -56 0
v -57 -57 0
v -58 -57 0
v -58 -56 0
v -57 -56 0
v -58 -57 0
v -59 -57 0
v -59 -56 0
v -58 -56 0
v -59 -57 0
v -60 -57 0
v -60 -56 0
v -59 -56 0
v -60 -57 0
v -61 -57 0
v -61 -56 0
v -60 -56 0
v -61 -57 0
v -62 -57 0
v -62 -56 0
v -61 -56 0
v -62 -57 0
v -63 -57 0
v -63 -56 0
v -62 -56 0
v -63 -57 0
v -64 -57 0
v -64 -56 0
v -63 -56 0
v -64 -57 0
v -65 -57 0
v -65 -56 0
v -64 -56 0
v -65 -57 0
v -66 -57 0
v -66 -56 0
v -65 -56 0
v -66 -57 0
v -67 -57 0
v -67 -56 0
v -66 -56 0
v -67 -57 0
v -68 -57 0
v -68 -56 0
v -67 -56 0
v -68 -57 0
v -69 -57 0
v -69 -56 0
v -68 -56 0
v -69 -57 0
v -70 -57 0
v -70 -56 0
v -69 -56 0
v -70 -57 0
v -71 -57 0
v -71 -56 0
v -70 -56 0
v -71 -57 0
v -72 -57 0
v -72 -56 0
v -71 -56 0
v -72 -57 0
v -73 -57 0
v -73 -56 0
v -72 -56 0
v -73 -57 0
v -74 -57 0
v -74 -56 0
v -73 -56 0
v -74 -57 0
v -75 -57 0
v -75 -56 0
v -74 -56 0
v -75 -57 0
v -76 -57 0
v -76 -56 0
v -75 -56 0
v -76 -57 0
v -77 -57 0
v -77 -56 0
v -76 -56 0
v -77 -57 0
v -78 -57 0
v -78 -56 0
v -77 -56 0
v -78 -57 0
v -79 -57 0
v -79 -56 0
v -78 -56 0
v -79 -57 0
v -80 -57 0
v -80 -56 0
v -79 -56 0
v -80 -57 0
v -81 -57 0
v -81 -56 0
v -80 -56 0
v -81 -57 0
v -82 -57 0
v -82 -56 0
v -81 -56 0
v -82 -57 0
v -83 -57 0
v -83 -56 0
v -82 -56 0
v -83 -57 0
v -84 -57 0
v -84 -56 0
v -83 -56 0
v -84 -57 0
v -85 -57 0
v -85 -56 0
v -84 -56 0
v -85 -57 0
v -86 -57 0
v -86 -56 0
v -85 -56 0
v -86 -57 0
v -87 -57 0
v -87 -56 0
v -86 -56 0
v -87 -57 0
v -88 -57 0
v -88 -56 0
v -87 -56 0
v -88 -57 0
v -89 -57 0
v -89 -56 0
v -88 -56 0
v -89 -57 0
v -90 -57 0
v -90 -56 0
v -89 -56 0
v -90 -57 0
v -91 -57 0
v -91 -56 0
v -90 -56 0
v -18 -58 0
v -19 -58 0
v -19 -57 0
v -18 -57 0
v -19 -58 0
v -20 -58 0
v -20 -57 0
v -19 -57 0
v -20 -58 0
v -21 -58 0
v -21 -57 0
v -20 -57 0
v -21 -58 0
v -22 -58 0
v -22 -57 0
v -21 -57 0
v -22 -58 0
v -23 -58 0
v -23 -57 0
v -22 -57 0
v -23 -58 0
v -24 -58 0
v -24 -57 0
v -23 -57 0
v -24 -58 0
v -25 -58 0
v -25 -57 0
v -24 -57 0
v -25 -58 0
v -26 -58 0
v -26 -57 0
v -25 -57 0
v -26 -58 0
v -27 -58 0
v -27 -57 0
v -26 -57 0
v -27 -58 0
v -28 -58 0
v -28 -57 0
v -27 -57 0
v -28 -58 0
v -29 -58 0
v -29 -57 0
v -28 -57 0
v -29 -58 0
v -30 -58 0
v -30 -57 0
v -29 -57 0
v -30 -58 0
v -31 -58 0
v -31 -57 0
v -30 -57 0
v -31 -58 0
v -32 -58 0
v -32 -57 0
v -31 -57 0
v -32 -58 0
v -33 -58 0
v -33 -57 0
v -32 -57 0
v -33 -58 0
v -34 -58 0
v -34 -57 0
v -33 -57 0
v -34 -58 0
v -35 -58 0
v -35 -57 0
v -34 -57 0
v -35 -58 0
v -36 -58 0
v -36 -57 0
v -35 -57 0
v -36 -58 0
v -37 -58 0
v -37 -57 0
v -36 -57 0
v -37 -58 0
v -38 -58 0
v -38 -57 0
v -37 -57 0
v -38 -58 0
v -39 -58 0
v -39 -57 0
v -38 -57 0
v -39 -58 0
v -40 -58 0
v -40 -57 0
v -39 -57 0
v -40 -58 0
v -41 -58 0
v -41 -57 0
v -40 -57 0
v -41 -58 0
v -42 -58 0
v -42 -57 0
v -41 -57 0
v -42 -58 0
v -43 -58 0
v -43 -57 0
v -42 -57 0
v -43 -58 0
v -44 -58 0
v -44 -57 0
v -43 -57 0
v -44 -58 0
v -45 -58 0
v -45 -57 0
v -44 -57 0
v -45 -58 0
v -46 -58 0
v -46 -57 0
v -45 -57 0
v -46 -58 0
v -47 -58 0
v -47 -57 0
v -46 -57 0
v -47 -58 0
v -48 -58 0
v -48 -57 0
v -47 -57 0
v -48 -58 0
v -49 -58 0
v -49 -57 0
v -48 -57 0
v -49 -58 0
v -50 -58 0
v -50 -57 0
v -49 -57 0
v -50 -58 0
v -51 -58 0
v -51 -57 0
v -50 -57 0
v -51 -58 0
v -52 -58 0
v -52 -57 0
v -51 -57 0
v -52 -58 0
v -53 -58 0
v -53 -57 0
v -52 -57 0
v -53 -58 0
v -54 -58 0
v -54 -57 0
v -53 -57 0
v -54 -58 0
v -55 -58 0
v -55 -57 0
v -54 -57 0
v -55 -58 0
v -56 -58 0
v -56 -57 0
v -55 -57 0
v -56 -58 0
v -57 -58 0
v -57 -57 0
v -56 -57 0
v -57 -58 0
v -58 -58 0
v -58 -57 0
v -57 -57 0
v -58 -58 0
v -59 -58 0
v -59 -57 0
v -58 -57 0
v -59 -58 0
v -60 -58 0
v -60 -57 0
v -59 -57 0
v -60 -58 0
v -61 -58 0
v -61 -57 0
v -60 -57 0
v -61 -58 0
v -62 -58 0
v -62 -57 0
v -61 -57 0
v -62 -58 0
v -63 -58 0
v -63 -57 0
v -62 -57 0
v -63 -58 0
v -64 -58 0
v -64 -57 0
v -63 -57 0
v -64 -58 0
v -65 -58 0
v -65 -57 0
v -64 -57 0
v -65 -58 0
v -66 -58 0
v -66 -57 0
v -65 -57 0
v -66 -58 0
v -67 -58 0
v -67 -57 0
v -66 -57 0
v -67 -58 0
v -68 -58 0
v -68 -57 0
v -67 -57 0
v -68 -58 0
v -69 -58 0
v -69 -57 0
v -68 -57 0
v -69 -58 0
v -70 -58 0
v -70 -57 0
v -69 -57 0
v -70 -58 0
v -71 -58 0
v -71 -57 0
v -70 -57 0
v -71 -58 0
v -72 -58 0
v -72 -57 0
v -71 -57 0
v -72 -58 0
v -73 -58 0
v -73 -57 0
v -72 -57 0
v -73 -58 0
v -74 -58 0
v -74 -57 0
v -73 -57 0
v -74 -58 0
v -75 -58 0
v -75 -57 0
v -74 -57 0
v -75 -58 0
v -76 -58 0
v -76 -57 0
v -75 -57 0
v -76 -58 0
v -77 -58 0
v -77 -57 0
v -76 -57 0
v -77 -58 0
v -78 -58 0
v -78 -57 0
v -77 -57 0
v -78 -58 0
v -79 -58 0
v -79 -57 0
v -78 -57 0
v -79 -58 0
v -80 -58 0
v -80 -57 0
v -79 -57 0
v -80 -58 0
v -81 -58 0
v -81 -57 0
v -80 -57 0
v -81 -58 0
v -82 -58 0
v -82 -57 0
v -81 -57 0
v -82 -58 0
v -83 -58 0
v -83 -57 0
v -82 -57 0
v -83 -58 0
v -84 -58 0
v -84 -57 0
v -83 -57 0
v -84 -58 0
v -85 -58 0
v -85 -57 0
v -84 -57 0
v -85 -58 0
v -86 -58 0
v -86 -57 0
v -85 -57 0
v -86 -58 0
v -87 -58 0
v -87 -57 0
v -86 -57 0
v -87 -58 0
v -88 -58 0
v -88 -57 0
v -87 -57 0
v -88 -58 0
v -89 -58 0
v -89 -57 0
v -88 -57 0
v -89 -58 0
v -90 -58 0
v -90 -57 0
v -89 -57 0
v -90 -58 0
v -91 -58 0
v -91 -57 0
v -90 -57 0

# Texture cooridinates (Count = 12)
vt 0.4705882 0.875
vt 0.5294118 0.875
vt 0.5294118 1
vt 0.4705882 1
vt 0.8823529 0.75
vt 0.9411765 0.75
vt 0.9411765 0.875
vt 0.8823529 0.875
vt 0.8823529 0
vt 0.9411765 0
vt 0.9411765 0.125
vt 0.8823529 0.125

# Normal
vn 0 0 -1

# Mesh description
g Level-1-Sheet-1_mesh_0002

# Faces
f 1/1/1 2/2/1 3/3/1 4/4/1
f 5/1/1 6/2/1 7/3/1 8/4/1
f 9/1/1 10/2/1 11/3/1 12/4/1
f 13/1/1 14/2/1 15/3/1 16/4/1
f 17/1/1 18/2/1 19/3/1 20/4/1
f 21/1/1 22/2/1 23/3/1 24/4/1
f 25/1/1 26/2/1 27/3/1 28/4/1
f 29/1/1 30/2/1 31/3/1 32/4/1
f 33/1/1 34/2/1 35/3/1 36/4/1
f 37/1/1 38/2/1 39/3/1 40/4/1
f 41/1/1 42/2/1 43/3/1 44/4/1
f 45/1/1 46/2/1 47/3/1 48/4/1
f 49/1/1 50/2/1 51/3/1 52/4/1
f 53/1/1 54/2/1 55/3/1 56/4/1
f 57/1/1 58/2/1 59/3/1 60/4/1
f 61/1/1 62/2/1 63/3/1 64/4/1
f 65/1/1 66/2/1 67/3/1 68/4/1
f 69/1/1 70/2/1 71/3/1 72/4/1
f 73/1/1 74/2/1 75/3/1 76/4/1
f 77/1/1 78/2/1 79/3/1 80/4/1
f 81/1/1 82/2/1 83/3/1 84/4/1
f 85/1/1 86/2/1 87/3/1 88/4/1
f 89/1/1 90/2/1 91/3/1 92/4/1
f 93/1/1 94/2/1 95/3/1 96/4/1
f 97/1/1 98/2/1 99/3/1 100/4/1
f 101/1/1 102/2/1 103/3/1 104/4/1
f 105/1/1 106/2/1 107/3/1 108/4/1
f 109/1/1 110/2/1 111/3/1 112/4/1
f 113/1/1 114/2/1 115/3/1 116/4/1
f 117/1/1 118/2/1 119/3/1 120/4/1
f 121/1/1 122/2/1 123/3/1 124/4/1
f 125/1/1 126/2/1 127/3/1 128/4/1
f 129/1/1 130/2/1 131/3/1 132/4/1
f 133/1/1 134/2/1 135/3/1 136/4/1
f 137/1/1 138/2/1 139/3/1 140/4/1
f 141/1/1 142/2/1 143/3/1 144/4/1
f 145/1/1 146/2/1 147/3/1 148/4/1
f 149/1/1 150/2/1 151/3/1 152/4/1
f 153/5/1 154/6/1 155/7/1 156/8/1
f 157/1/1 158/2/1 159/3/1 160/4/1
f 161/1/1 162/2/1 163/3/1 164/4/1
f 165/1/1 166/2/1 167/3/1 168/4/1
f 169/1/1 170/2/1 171/3/1 172/4/1
f 173/1/1 174/2/1 175/3/1 176/4/1
f 177/1/1 178/2/1 179/3/1 180/4/1
f 181/1/1 182/2/1 183/3/1 184/4/1
f 185/1/1 186/2/1 187/3/1 188/4/1
f 189/1/1 190/2/1 191/3/1 192/4/1
f 193/1/1 194/2/1 195/3/1 196/4/1
f 197/1/1 198/2/1 199/3/1 200/4/1
f 201/1/1 202/2/1 203/3/1 204/4/1
f 205/1/1 206/2/1 207/3/1 208/4/1
f 209/1/1 210/2/1 211/3/1 212/4/1
f 213/1/1 214/2/1 215/3/1 216/4/1
f 217/1/1 218/2/1 219/3/1 220/4/1
f 221/1/1 222/2/1 223/3/1 224/4/1
f 225/1/1 226/2/1 227/3/1 228/4/1
f 229/1/1 230/2/1 231/3/1 232/4/1
f 233/1/1 234/2/1 235/3/1 236/4/1
f 237/1/1 238/2/1 239/3/1 240/4/1
f 241/1/1 242/2/1 243/3/1 244/4/1
f 245/1/1 246/2/1 247/3/1 248/4/1
f 249/1/1 250/2/1 251/3/1 252/4/1
f 253/1/1 254/2/1 255/3/1 256/4/1
f 257/1/1 258/2/1 259/3/1 260/4/1
f 261/1/1 262/2/1 263/3/1 264/4/1
f 265/1/1 266/2/1 267/3/1 268/4/1
f 269/1/1 270/2/1 271/3/1 272/4/1
f 273/1/1 274/2/1 275/3/1 276/4/1
f 277/1/1 278/2/1 279/3/1 280/4/1
f 281/1/1 282/2/1 283/3/1 284/4/1
f 285/1/1 286/2/1 287/3/1 288/4/1
f 289/1/1 290/2/1 291/3/1 292/4/1
f 293/1/1 294/2/1 295/3/1 296/4/1
f 297/1/1 298/2/1 299/3/1 300/4/1
f 301/1/1 302/2/1 303/3/1 304/4/1
f 305/1/1 306/2/1 307/3/1 308/4/1
f 309/1/1 310/2/1 311/3/1 312/4/1
f 313/1/1 314/2/1 315/3/1 316/4/1
f 317/1/1 318/2/1 319/3/1 320/4/1
f 321/1/1 322/2/1 323/3/1 324/4/1
f 325/1/1 326/2/1 327/3/1 328/4/1
f 329/1/1 330/2/1 331/3/1 332/4/1
f 333/1/1 334/2/1 335/3/1 336/4/1
f 337/1/1 338/2/1 339/3/1 340/4/1
f 341/1/1 342/2/1 343/3/1 344/4/1
f 345/1/1 346/2/1 347/3/1 348/4/1
f 349/1/1 350/2/1 351/3/1 352/4/1
f 353/1/1 354/2/1 355/3/1 356/4/1
f 357/1/1 358/2/1 359/3/1 360/4/1
f 361/1/1 362/2/1 363/3/1 364/4/1
f 365/1/1 366/2/1 367/3/1 368/4/1
f 369/1/1 370/2/1 371/3/1 372/4/1
f 373/1/1 374/2/1 375/3/1 376/4/1
f 377/1/1 378/2/1 379/3/1 380/4/1
f 381/1/1 382/2/1 383/3/1 384/4/1
f 385/1/1 386/2/1 387/3/1 388/4/1
f 389/1/1 390/2/1 391/3/1 392/4/1
f 393/1/1 394/2/1 395/3/1 396/4/1
f 397/1/1 398/2/1 399/3/1 400/4/1
f 401/1/1 402/2/1 403/3/1 404/4/1
f 405/1/1 406/2/1 407/3/1 408/4/1
f 409/1/1 410/2/1 411/3/1 412/4/1
f 413/1/1 414/2/1 415/3/1 416/4/1
f 417/1/1 418/2/1 419/3/1 420/4/1
f 421/1/1 422/2/1 423/3/1 424/4/1
f 425/1/1 426/2/1 427/3/1 428/4/1
f 429/1/1 430/2/1 431/3/1 432/4/1
f 433/1/1 434/2/1 435/3/1 436/4/1
f 437/1/1 438/2/1 439/3/1 440/4/1
f 441/1/1 442/2/1 443/3/1 444/4/1
f 445/1/1 446/2/1 447/3/1 448/4/1
f 449/1/1 450/2/1 451/3/1 452/4/1
f 453/1/1 454/2/1 455/3/1 456/4/1
f 457/1/1 458/2/1 459/3/1 460/4/1
f 461/1/1 462/2/1 463/3/1 464/4/1
f 465/1/1 466/2/1 467/3/1 468/4/1
f 469/1/1 470/2/1 471/3/1 472/4/1
f 473/1/1 474/2/1 475/3/1 476/4/1
f 477/1/1 478/2/1 479/3/1 480/4/1
f 481/1/1 482/2/1 483/3/1 484/4/1
f 485/1/1 486/2/1 487/3/1 488/4/1
f 489/1/1 490/2/1 491/3/1 492/4/1
f 493/1/1 494/2/1 495/3/1 496/4/1
f 497/1/1 498/2/1 499/3/1 500/4/1
f 501/1/1 502/2/1 503/3/1 504/4/1
f 505/1/1 506/2/1 507/3/1 508/4/1
f 509/1/1 510/2/1 511/3/1 512/4/1
f 513/1/1 514/2/1 515/3/1 516/4/1
f 517/1/1 518/2/1 519/3/1 520/4/1
f 521/1/1 522/2/1 523/3/1 524/4/1
f 525/1/1 526/2/1 527/3/1 528/4/1
f 529/1/1 530/2/1 531/3/1 532/4/1
f 533/9/1 534/10/1 535/11/1 536/12/1
f 537/9/1 538/10/1 539/11/1 540/12/1
f 541/9/1 542/10/1 543/11/1 544/12/1
f 545/9/1 546/10/1 547/11/1 548/12/1
f 549/9/1 550/10/1 551/11/1 552/12/1
f 553/9/1 554/10/1 555/11/1 556/12/1
f 557/9/1 558/10/1 559/11/1 560/12/1
f 561/9/1 562/10/1 563/11/1 564/12/1
f 565/9/1 566/10/1 567/11/1 568/12/1
f 569/9/1 570/10/1 571/11/1 572/12/1
f 573/9/1 574/10/1 575/11/1 576/12/1
f 577/9/1 578/10/1 579/11/1 580/12/1
f 581/9/1 582/10/1 583/11/1 584/12/1
f 585/9/1 586/10/1 587/11/1 588/12/1
f 589/9/1 590/10/1 591/11/1 592/12/1
f 593/9/1 594/10/1 595/11/1 596/12/1
f 597/9/1 598/10/1 599/11/1 600/12/1
f 601/9/1 602/10/1 603/11/1 604/12/1
f 605/9/1 606/10/1 607/11/1 608/12/1
f 609/9/1 610/10/1 611/11/1 612/12/1
f 613/9/1 614/10/1 615/11/1 616/12/1
f 617/9/1 618/10/1 619/11/1 620/12/1
f 621/9/1 622/10/1 623/11/1 624/12/1
f 625/9/1 626/10/1 627/11/1 628/12/1
f 629/9/1 630/10/1 631/11/1 632/12/1
f 633/9/1 634/10/1 635/11/1 636/12/1
f 637/9/1 638/10/1 639/11/1 640/12/1
f 641/9/1 642/10/1 643/11/1 644/12/1
f 645/9/1 646/10/1 647/11/1 648/12/1
f 649/9/1 650/10/1 651/11/1 652/12/1
f 653/9/1 654/10/1 655/11/1 656/12/1
f 657/9/1 658/10/1 659/11/1 660/12/1
f 661/9/1 662/10/1 663/11/1 664/12/1
f 665/9/1 666/10/1 667/11/1 668/12/1
f 669/9/1 670/10/1 671/11/1 672/12/1
f 673/9/1 674/10/1 675/11/1 676/12/1
f 677/9/1 678/10/1 679/11/1 680/12/1
f 681/9/1 682/10/1 683/11/1 684/12/1
f 685/9/1 686/10/1 687/11/1 688/12/1
f 689/9/1 690/10/1 691/11/1 692/12/1
f 693/9/1 694/10/1 695/11/1 696/12/1
f 697/9/1 698/10/1 699/11/1 700/12/1
f 701/9/1 702/10/1 703/11/1 704/12/1
f 705/9/1 706/10/1 707/11/1 708/12/1
f 709/9/1 710/10/1 711/11/1 712/12/1
f 713/9/1 714/10/1 715/11/1 716/12/1
f 717/9/1 718/10/1 719/11/1 720/12/1
f 721/9/1 722/10/1 723/11/1 724/12/1
f 725/9/1 726/10/1 727/11/1 728/12/1
f 729/9/1 730/10/1 731/11/1 732/12/1
f 733/9/1 734/10/1 735/11/1 736/12/1
f 737/9/1 738/10/1 739/11/1 740/12/1
f 741/9/1 742/10/1 743/11/1 744/12/1
f 745/9/1 746/10/1 747/11/1 748/12/1
f 749/9/1 750/10/1 751/11/1 752/12/1
f 753/9/1 754/10/1 755/11/1 756/12/1
f 757/9/1 758/10/1 759/11/1 760/12/1
f 761/9/1 762/10/1 763/11/1 764/12/1
f 765/9/1 766/10/1 767/11/1 768/12/1
f 769/9/1 770/10/1 771/11/1 772/12/1
f 773/9/1 774/10/1 775/11/1 776/12/1
f 777/9/1 778/10/1 779/11/1 780/12/1
f 781/9/1 782/10/1 783/11/1 784/12/1
f 785/9/1 786/10/1 787/11/1 788/12/1
f 789/9/1 790/10/1 791/11/1 792/12/1
f 793/9/1 794/10/1 795/11/1 796/12/1
f 797/9/1 798/10/1 799/11/1 800/12/1
f 801/9/1 802/10/1 803/11/1 804/12/1
f 805/9/1 806/10/1 807/11/1 808/12/1
f 809/9/1 810/10/1 811/11/1 812/12/1
f 813/9/1 814/10/1 815/11/1 816/12/1
f 817/9/1 818/10/1 819/11/1 820/12/1
f 821/9/1 822/10/1 823/11/1 824/12/1
f 825/1/1 826/2/1 827/3/1 828/4/1
f 829/1/1 830/2/1 831/3/1 832/4/1
f 833/1/1 834/2/1 835/3/1 836/4/1
f 837/1/1 838/2/1 839/3/1 840/4/1
f 841/1/1 842/2/1 843/3/1 844/4/1
f 845/1/1 846/2/1 847/3/1 848/4/1
f 849/1/1 850/2/1 851/3/1 852/4/1
f 853/1/1 854/2/1 855/3/1 856/4/1
f 857/1/1 858/2/1 859/3/1 860/4/1
f 861/1/1 862/2/1 863/3/1 864/4/1
f 865/1/1 866/2/1 867/3/1 868/4/1
f 869/1/1 870/2/1 871/3/1 872/4/1
f 873/1/1 874/2/1 875/3/1 876/4/1
f 877/1/1 878/2/1 879/3/1 880/4/1
f 881/1/1 882/2/1 883/3/1 884/4/1
f 885/1/1 886/2/1 887/3/1 888/4/1
f 889/1/1 890/2/1 891/3/1 892/4/1
f 893/1/1 894/2/1 895/3/1 896/4/1
f 897/1/1 898/2/1 899/3/1 900/4/1
f 901/1/1 902/2/1 903/3/1 904/4/1
f 905/1/1 906/2/1 907/3/1 908/4/1
f 909/1/1 910/2/1 911/3/1 912/4/1
f 913/1/1 914/2/1 915/3/1 916/4/1
f 917/1/1 918/2/1 919/3/1 920/4/1
f 921/1/1 922/2/1 923/3/1 924/4/1
f 925/1/1 926/2/1 927/3/1 928/4/1
f 929/1/1 930/2/1 931/3/1 932/4/1
f 933/1/1 934/2/1 935/3/1 936/4/1
f 937/1/1 938/2/1 939/3/1 940/4/1
f 941/1/1 942/2/1 943/3/1 944/4/1
f 945/1/1 946/2/1 947/3/1 948/4/1
f 949/1/1 950/2/1 951/3/1 952/4/1
f 953/1/1 954/2/1 955/3/1 956/4/1
f 957/1/1 958/2/1 959/3/1 960/4/1
f 961/1/1 962/2/1 963/3/1 964/4/1
f 965/1/1 966/2/1 967/3/1 968/4/1
f 969/1/1 970/2/1 971/3/1 972/4/1
f 973/1/1 974/2/1 975/3/1 976/4/1
f 977/1/1 978/2/1 979/3/1 980/4/1
f 981/1/1 982/2/1 983/3/1 984/4/1
f 985/1/1 986/2/1 987/3/1 988/4/1
f 989/1/1 990/2/1 991/3/1 992/4/1
f 993/1/1 994/2/1 995/3/1 996/4/1
f 997/1/1 998/2/1 999/3/1 1000/4/1
f 1001/1/1 1002/2/1 1003/3/1 1004/4/1
f 1005/1/1 1006/2/1 1007/3/1 1008/4/1
f 1009/1/1 1010/2/1 1011/3/1 1012/4/1
f 1013/1/1 1014/2/1 1015/3/1 1016/4/1
f 1017/1/1 1018/2/1 1019/3/1 1020/4/1
f 1021/1/1 1022/2/1 1023/3/1 1024/4/1
f 1025/1/1 1026/2/1 1027/3/1 1028/4/1
f 1029/1/1 1030/2/1 1031/3/1 1032/4/1
f 1033/1/1 1034/2/1 1035/3/1 1036/4/1
f 1037/1/1 1038/2/1 1039/3/1 1040/4/1
f 1041/1/1 1042/2/1 1043/3/1 1044/4/1
f 1045/1/1 1046/2/1 1047/3/1 1048/4/1
f 1049/1/1 1050/2/1 1051/3/1 1052/4/1
f 1053/1/1 1054/2/1 1055/3/1 1056/4/1
f 1057/1/1 1058/2/1 1059/3/1 1060/4/1
f 1061/1/1 1062/2/1 1063/3/1 1064/4/1
f 1065/1/1 1066/2/1 1067/3/1 1068/4/1
f 1069/1/1 1070/2/1 1071/3/1 1072/4/1
f 1073/1/1 1074/2/1 1075/3/1 1076/4/1
f 1077/1/1 1078/2/1 1079/3/1 1080/4/1
f 1081/1/1 1082/2/1 1083/3/1 1084/4/1
f 1085/1/1 1086/2/1 1087/3/1 1088/4/1
f 1089/1/1 1090/2/1 1091/3/1 1092/4/1
f 1093/1/1 1094/2/1 1095/3/1 1096/4/1
f 1097/1/1 1098/2/1 1099/3/1 1100/4/1
f 1101/1/1 1102/2/1 1103/3/1 1104/4/1
f 1105/1/1 1106/2/1 1107/3/1 1108/4/1
f 1109/1/1 1110/2/1 1111/3/1 1112/4/1
f 1113/1/1 1114/2/1 1115/3/1 1116/4/1

